<svg width="104" height="104" viewBox="0 0 104 104" fill="none" xmlns="http://www.w3.org/2000/svg">
<g filter="url(#filter0_d_3592_1005)">
<path d="M12 36.4444C12 26.488 12 21.5097 13.9377 17.7068C15.6421 14.3617 18.3617 11.6421 21.7068 9.93766C25.5097 8 30.488 8 40.4444 8H63.5556C73.512 8 78.4903 8 82.2932 9.93766C85.6383 11.6421 88.3579 14.3617 90.0623 17.7068C92 21.5097 92 26.488 92 36.4444V59.5556C92 69.512 92 74.4903 90.0623 78.2932C88.3579 81.6383 85.6383 84.3579 82.2932 86.0623C78.4903 88 73.512 88 63.5556 88H40.4444C30.488 88 25.5097 88 21.7068 86.0623C18.3617 84.3579 15.6421 81.6383 13.9377 78.2932C12 74.4903 12 69.512 12 59.5556V36.4444Z" fill="#3F51B5"/>
<path d="M77.778 21.3333C78.2689 21.3333 78.6669 21.7313 78.6669 22.2222V28.3877C78.6669 28.8786 78.2689 29.2766 77.778 29.2766L43.2437 29.2766C42.7528 29.2766 42.3549 28.8786 42.3549 28.3877V22.2222C42.3549 21.7313 42.7528 21.3333 43.2437 21.3333L77.778 21.3333Z" fill="white"/>
<path d="M38.0616 21.3333C38.5525 21.3333 38.9505 21.7313 38.9505 22.2222V28.3877C38.9505 28.8786 38.5525 29.2766 38.0616 29.2766L26.2224 29.2766C25.7315 29.2766 25.3335 28.8786 25.3335 28.3877L25.3335 22.2222C25.3335 21.7313 25.7315 21.3333 26.2224 21.3333H38.0616Z" fill="white"/>
<path fill-rule="evenodd" clip-rule="evenodd" d="M77.778 51.9716C78.2689 51.9716 78.6669 51.5737 78.6669 51.0828V33.5698C78.6669 33.0788 78.2689 32.6809 77.778 32.6809L43.2437 32.6809C42.7528 32.6809 42.3549 33.0788 42.3549 33.5698V39.7352C42.3549 40.2262 42.7528 40.6241 43.2437 40.6241H49.4091C49.9001 40.6241 50.298 41.0221 50.298 41.513L50.298 43.1395C50.298 43.6304 49.9001 44.0284 49.4091 44.0284H43.2437C42.7528 44.0284 42.3549 44.4263 42.3549 44.9173V51.0828C42.3549 51.5737 42.7528 51.9716 43.2437 51.9716H77.778ZM69.8348 44.0284C70.3257 44.0284 70.7236 43.6304 70.7236 43.1395V41.513C70.7236 41.0221 70.3257 40.6241 69.8348 40.6241L59.1302 40.6241C58.6393 40.6241 58.2413 41.0221 58.2413 41.513V43.1395C58.2413 43.6304 58.6393 44.0284 59.1302 44.0284L69.8348 44.0284Z" fill="white"/>
<path fill-rule="evenodd" clip-rule="evenodd" d="M43.2438 55.3759C42.7529 55.3759 42.3549 55.7739 42.3549 56.2648L42.3549 73.7778C42.3549 74.2687 42.7528 74.6667 43.2437 74.6667H77.778C78.2689 74.6667 78.6669 74.2687 78.6669 73.7778V56.2648C78.6669 55.7739 78.2689 55.3759 77.778 55.3759H43.2438ZM69.8348 63.3192C70.3257 63.3192 70.7236 63.7171 70.7236 64.208V65.8345C70.7236 66.3254 70.3257 66.7234 69.8348 66.7234H51.1871C50.6961 66.7234 50.2982 66.3254 50.2982 65.8345V64.208C50.2982 63.7171 50.6961 63.3192 51.1871 63.3192L69.8348 63.3192Z" fill="white"/>
<path d="M25.3335 73.7778C25.3335 74.2687 25.7315 74.6667 26.2224 74.6667H38.0616C38.5525 74.6667 38.9505 74.2687 38.9505 73.7778V44.9173C38.9505 44.4263 38.5525 44.0284 38.0616 44.0284H26.2224C25.7315 44.0284 25.3335 44.4263 25.3335 44.9173L25.3335 51.0828C25.3335 51.5737 25.7315 51.9716 26.2224 51.9716H30.1184C30.6093 51.9716 31.0073 52.3696 31.0073 52.8605L31.0073 65.8345C31.0073 66.3254 30.6093 66.7234 30.1184 66.7234H26.2224C25.7315 66.7234 25.3335 67.1214 25.3335 67.6123L25.3335 73.7778Z" fill="white"/>
</g>
<defs>
<filter id="filter0_d_3592_1005" x="0" y="0" width="104" height="104" filterUnits="userSpaceOnUse" color-interpolation-filters="sRGB">
<feFlood flood-opacity="0" result="BackgroundImageFix"/>
<feColorMatrix in="SourceAlpha" type="matrix" values="0 0 0 0 0 0 0 0 0 0 0 0 0 0 0 0 0 0 127 0" result="hardAlpha"/>
<feOffset dy="4"/>
<feGaussianBlur stdDeviation="6"/>
<feColorMatrix type="matrix" values="0 0 0 0 0.368627 0 0 0 0 0.435294 0 0 0 0 0.768627 0 0 0 0.3 0"/>
<feBlend mode="normal" in2="BackgroundImageFix" result="effect1_dropShadow_3592_1005"/>
<feBlend mode="normal" in="SourceGraphic" in2="effect1_dropShadow_3592_1005" result="shape"/>
</filter>
</defs>
</svg>
